<?xml version="1.0" standalone="no"?>
<!DOCTYPE svg PUBLIC "-//W3C//DTD SVG 20010904//EN"
 "http://www.w3.org/TR/2001/REC-SVG-20010904/DTD/svg10.dtd">
<svg version="1.0" xmlns="http://www.w3.org/2000/svg"
 width="1300.000000pt" height="1390.000000pt" viewBox="0 0 1300.000000 1390.000000"
 preserveAspectRatio="xMidYMid meet">
<metadata>
Created by potrace 1.16, written by Peter Selinger 2001-2019
</metadata>
<g transform="translate(0.000000,1390.000000) scale(0.100000,-0.100000)"
fill="#000000" stroke="none">
<path d="M4480 8661 c0 -1286 2 -1431 16 -1445 18 -19 65 -21 82 -4 9 9 12
330 12 1385 l0 1373 1910 0 1910 0 0 -2135 0 -2135 -167 0 c-93 -1 -805 -1
-1583 -1 -779 0 -1429 -3 -1445 -8 -40 -10 -55 -50 -31 -85 l16 -26 1660 0
1660 0 0 2255 0 2255 -2020 0 -2020 0 0 -1429z"/>
<path d="M4912 7833 l3 -1818 1585 0 1585 0 3 1818 2 1817 -1590 0 -1590 0 2
-1817z m481 1690 c3 -10 30 -90 61 -177 31 -88 55 -160 53 -161 -1 -1 -105
-42 -232 -90 -126 -48 -233 -89 -237 -92 -5 -2 -8 118 -8 266 l0 271 179 0
c162 0 179 -2 184 -17z m1561 5 c9 -21 153 -614 149 -618 -2 -2 -7 0 -11 5 -4
6 -88 82 -187 170 -99 87 -182 162 -185 165 -43 50 -219 189 -274 217 -68 34
-89 50 -81 63 3 5 587 3 589 -2z m706 -27 c72 -34 160 -124 160 -164 0 -8 6
-20 14 -26 23 -19 38 -137 27 -199 -13 -65 -75 -163 -109 -169 -13 -3 24 108
40 118 6 4 9 49 7 100 -2 71 1 93 10 91 7 -1 10 2 6 7 -3 6 -11 8 -18 5 -7 -2
-18 9 -25 26 -18 41 -69 93 -117 120 -73 41 -202 46 -276 11 -90 -42 -107 -77
-69 -138 21 -35 40 -43 40 -19 0 26 63 76 117 93 45 14 57 14 99 3 85 -24 155
-114 167 -215 5 -37 4 -45 -3 -30 -9 17 -10 15 -6 -11 7 -42 -4 -74 -36 -113
-24 -28 -32 -31 -63 -25 -19 3 -35 10 -35 16 0 5 4 7 9 3 5 -3 21 19 36 50 24
47 26 62 20 112 -3 32 -14 68 -23 80 -19 24 -89 63 -112 63 -34 -1 -98 -39
-113 -68 -17 -36 -9 -102 17 -131 9 -10 14 -20 11 -23 -9 -8 60 4 71 14 7 5
10 17 7 28 -3 11 -2 31 1 45 6 22 9 23 31 13 14 -6 28 -22 32 -36 8 -33 -27
-78 -58 -74 -19 2 -21 0 -9 -8 8 -5 11 -10 5 -11 -5 -1 -14 -3 -20 -4 -5 -2
-20 -3 -32 -4 -26 -1 -83 -47 -83 -67 0 -17 105 -19 163 -3 23 6 43 7 50 1 12
-8 127 -31 157 -31 17 0 89 -11 108 -17 12 -4 -32 -44 -159 -147 l-46 -37 -17
68 c-10 37 -21 77 -26 89 l-9 21 -58 -24 c-69 -28 -94 -29 -174 -7 -57 16 -62
16 -90 -1 -29 -17 -29 -17 -39 9 -6 14 -10 32 -10 38 0 6 -16 37 -35 68 -41
67 -57 130 -56 225 1 47 -9 109 -29 190 -16 65 -30 120 -30 122 0 1 22 2 49 2
47 0 49 -1 72 -45 13 -25 28 -45 33 -45 4 0 34 15 65 34 114 67 253 78 361 27z
m-1420 14 c0 -8 -5 -15 -11 -15 -10 0 -378 -159 -558 -241 -24 -11 -47 -17
-52 -12 -7 7 -99 265 -99 278 0 3 162 5 360 5 313 0 360 -2 360 -15z m-125
-258 c16 -23 33 -46 37 -52 18 -22 95 -127 118 -160 14 -20 33 -45 43 -57 9
-11 17 -23 17 -25 0 -2 -21 -56 -46 -121 -59 -150 -129 -332 -137 -355 -7 -17
-9 -17 -38 7 -59 50 -152 86 -224 86 -39 0 -40 1 -56 53 -9 28 -35 104 -58
167 -23 63 -46 131 -52 150 -5 19 -14 44 -19 55 -6 11 -16 41 -24 66 l-13 47
56 25 c181 83 347 156 356 156 6 0 23 -18 40 -42z m1854 -774 c0 -192 -3 -341
-6 -333 -5 12 -105 191 -183 325 -9 17 -31 55 -48 85 l-31 55 132 107 c73 59
133 107 135 108 1 0 2 -156 1 -347z m-2276 169 c15 -43 27 -82 27 -88 0 -6
-17 -20 -38 -31 -54 -31 -115 -92 -147 -149 -16 -27 -30 -50 -31 -52 -2 -3
-104 16 -219 43 -38 8 -85 17 -104 20 -33 4 -49 12 -40 18 24 20 195 127 203
127 5 0 24 9 40 20 50 33 271 169 276 169 3 1 17 -34 33 -77z m1523 -34 c76
-130 258 -436 278 -468 32 -49 80 -134 78 -138 -3 -4 -524 -4 -527 0 -2 2 3
57 11 123 8 66 23 203 34 305 26 239 23 225 62 228 31 2 36 -2 64 -50z m-1265
-169 c150 -51 222 -221 155 -365 -61 -131 -227 -190 -354 -125 -45 23 -104 84
-127 131 -29 57 -26 154 8 222 58 117 197 177 318 137z m489 -179 c40 -66 63
-109 177 -319 19 -35 43 -77 53 -94 l19 -30 -112 -223 c-62 -123 -114 -224
-117 -224 -3 0 -15 35 -27 78 -12 42 -30 106 -41 142 -10 36 -38 130 -61 210
-23 80 -45 152 -48 160 -18 45 -41 145 -35 159 5 13 46 67 141 183 8 9 16 16
17 15 1 -1 16 -27 34 -57z m-1185 -11 c99 -22 182 -42 184 -45 3 -2 -13 -30
-35 -62 -66 -95 -285 -403 -331 -466 l-43 -60 0 342 0 342 23 -5 c12 -3 103
-23 202 -46z m264 -221 c6 -17 17 -39 25 -47 8 -9 25 -54 39 -101 45 -153 97
-345 97 -358 0 -18 -168 -213 -175 -203 -3 5 -48 116 -100 246 l-95 236 28 42
c15 23 33 49 41 57 8 8 26 33 40 55 39 60 74 105 82 105 4 0 12 -14 18 -32z
m301 -218 c30 -4 65 -6 78 -4 12 3 22 1 22 -3 0 -20 -72 -404 -75 -401 -5 6
-115 404 -115 417 0 8 6 11 18 6 9 -4 42 -10 72 -15z m-506 -355 c43 -104 84
-204 92 -222 18 -39 18 -53 -1 -80 -8 -12 -16 -30 -18 -40 -1 -10 -11 -34 -22
-53 -23 -40 -25 -44 -101 -210 -31 -69 -79 -172 -105 -228 -27 -57 -49 -106
-49 -108 0 -2 -18 -41 -40 -86 l-39 -83 -1 530 0 530 97 138 c76 109 98 135
104 120 4 -10 41 -103 83 -208z m1481 173 c15 -29 37 -65 47 -80 l19 -28 -95
-132 c-99 -137 -140 -193 -241 -336 -32 -45 -59 -81 -60 -80 -2 2 7 48 19 103
18 86 39 135 146 353 69 138 127 252 131 252 3 0 18 -24 34 -52z m1177 -1060
l-4 -67 -49 54 c-36 38 -55 51 -69 48 -30 -8 -24 -43 11 -81 43 -46 28 -53
-16 -9 -42 42 -45 84 -7 103 l22 11 -25 37 c-13 20 -53 71 -88 114 -34 42 -77
96 -95 119 l-33 42 12 83 c12 81 16 91 173 364 l161 281 5 -516 c3 -284 4
-546 2 -583z m-1632 777 c16 -55 26 -102 22 -106 -4 -4 -63 -12 -132 -18 -69
-7 -143 -14 -165 -17 l-40 -6 55 53 c181 172 224 211 227 203 1 -5 16 -54 33
-109z m-581 -79 c17 -60 31 -118 31 -130 0 -12 -31 -77 -69 -146 -37 -69 -123
-225 -190 -347 -68 -123 -124 -223 -125 -223 -1 0 29 168 68 373 l71 373 90
106 c50 58 91 105 91 105 1 -1 16 -51 33 -111z m1701 -423 c0 -8 -221 -574
-227 -582 -2 -2 -5 -2 -7 0 -6 5 -146 540 -146 555 0 17 380 44 380 27z m-504
-37 c0 0 8 -30 17 -66 9 -36 39 -150 66 -255 27 -104 48 -192 46 -194 -3 -2
-93 87 -202 198 -216 220 -208 214 -353 235 -61 9 -74 17 -57 38 9 12 36 18
97 23 233 16 333 25 338 30 4 4 44 -3 48 -9z m669 -72 c22 -31 49 -63 60 -70
11 -8 16 -14 11 -14 -4 0 3 -13 16 -29 12 -16 32 -41 43 -56 11 -16 64 -85
117 -154 l98 -126 0 -82 0 -82 -252 -3 c-301 -4 -408 0 -408 12 0 5 54 145
121 312 66 167 125 313 130 326 4 12 12 22 16 22 5 0 26 -26 48 -56z m-2310
-135 c-8 -46 -21 -120 -29 -164 -9 -44 -22 -118 -31 -165 -28 -154 -21 -145
-100 -148 -37 -2 -72 1 -76 5 -4 4 -2 22 6 38 8 17 34 73 58 125 25 52 55 118
67 145 13 28 42 92 66 142 24 51 44 98 44 104 0 7 2 10 5 8 2 -3 -2 -43 -10
-90z m415 -263 c38 -104 70 -196 70 -203 0 -10 -43 -13 -211 -13 l-211 0 25
43 c13 23 43 78 67 122 24 44 70 129 103 189 l61 109 13 -29 c7 -16 44 -114
83 -218z m1128 0 c111 -111 202 -206 202 -210 0 -3 -172 -6 -381 -6 l-382 0 7
48 c6 45 14 55 169 210 89 89 167 162 172 162 6 0 102 -92 213 -204z"/>
<path d="M4502 5685 c-27 -20 -29 -65 -4 -88 16 -15 45 -17 199 -17 162 0 182
2 196 18 21 23 22 52 3 78 -13 17 -29 19 -193 22 -149 2 -182 0 -201 -13z"/>
<path d="M4670 5223 c0 -4 -27 -133 -60 -286 -33 -154 -60 -283 -60 -288 0 -5
22 -9 49 -9 l49 0 7 46 c11 74 11 74 80 74 l62 0 12 -60 12 -60 50 0 50 0 -6
33 c-4 17 -32 149 -64 292 l-57 260 -62 3 c-34 2 -62 -1 -62 -5z"/>
<path d="M4988 4944 c-2 -157 0 -290 3 -296 3 -5 26 -8 50 -6 l44 3 2 93 c1
52 4 96 7 99 2 3 13 2 24 -1 15 -5 25 -29 44 -99 l25 -92 46 -3 c56 -4 56 -4
25 115 -21 79 -21 86 -6 97 29 21 38 63 38 175 0 184 -16 201 -194 201 l-105
0 -3 -286z m196 170 c11 -29 6 -160 -6 -172 -7 -7 -29 -12 -50 -12 l-38 0 0
100 0 100 44 0 c31 0 46 -5 50 -16z"/>
<path d="M5350 5180 l0 -50 45 0 45 0 0 -245 0 -245 50 0 50 0 2 243 3 242 48
3 47 3 0 50 0 49 -145 0 -145 0 0 -50z"/>
<path d="M5945 5221 c-11 -5 -29 -19 -40 -31 -18 -20 -20 -39 -23 -218 -4
-230 1 -276 33 -308 22 -22 33 -24 112 -24 110 0 125 5 146 40 14 22 17 54 17
154 l0 126 -70 0 -70 0 0 -50 c0 -47 2 -50 25 -50 21 0 25 -5 25 -29 0 -16 -3
-42 -6 -59 -5 -27 -11 -31 -48 -35 -29 -3 -45 0 -53 11 -16 20 -18 334 -3 363
8 14 21 19 50 19 44 0 60 -18 60 -69 0 -30 1 -31 45 -31 l45 0 0 66 c0 78 -11
101 -55 120 -37 15 -157 18 -190 5z"/>
<path d="M6375 5218 c-2 -7 -29 -130 -60 -273 -30 -143 -57 -270 -60 -282 -5
-22 -2 -23 44 -23 54 0 54 0 66 78 l7 43 66 -3 67 -3 10 -55 10 -55 48 -3 c38
-3 47 0 47 13 0 9 -27 140 -60 292 -33 151 -60 277 -60 279 0 2 -27 4 -60 4
-40 0 -62 -4 -65 -12z"/>
<path d="M6697 5223 c-4 -3 -7 -136 -7 -295 l0 -288 145 0 145 0 0 45 c0 38
-3 45 -22 50 -13 3 -32 5 -43 4 -11 -1 -44 -1 -72 -1 l-53 2 0 245 0 245 -43
0 c-24 0 -47 -3 -50 -7z"/>
<path d="M7047 5224 c-3 -3 -6 -136 -7 -295 l0 -289 145 0 145 0 0 44 c0 54
-11 60 -114 54 l-71 -3 -3 248 -2 247 -44 0 c-23 0 -45 -3 -49 -6z"/>
<path d="M7390 4935 l0 -295 145 0 145 0 0 45 0 45 -47 2 c-27 1 -69 1 -95 0
l-48 -3 0 75 0 75 73 3 72 3 3 48 3 47 -75 0 -76 0 0 75 0 75 95 0 95 0 0 50
0 50 -145 0 -145 0 0 -295z"/>
<path d="M7757 5223 c-4 -3 -7 -136 -7 -295 l0 -288 50 0 50 0 0 100 c0 100 0
100 24 98 25 -2 27 -6 66 -155 l11 -43 49 0 c28 0 50 2 50 4 0 2 -12 48 -26
102 -18 68 -23 99 -15 102 29 10 41 62 41 181 0 141 -8 167 -55 186 -35 15
-225 22 -238 8z m191 -187 c3 -100 0 -106 -60 -106 l-38 0 0 101 0 100 48 -3
47 -3 3 -89z"/>
<path d="M8080 5222 c0 -4 31 -84 70 -177 l70 -170 0 -117 0 -118 50 0 50 0 0
126 0 126 65 156 c36 85 65 162 65 169 0 11 -12 13 -47 11 l-48 -3 -43 -104
c-23 -58 -44 -106 -45 -107 -2 -2 -22 46 -46 106 l-43 110 -49 0 c-27 0 -49
-4 -49 -8z"/>
<path d="M4496 4261 c-25 -27 -17 -72 14 -88 39 -19 517 -17 548 3 29 19 31
78 3 94 -12 6 -121 10 -284 10 -247 0 -265 -1 -281 -19z"/>
<path d="M5276 4261 c-25 -27 -17 -72 14 -88 20 -10 364 -12 1606 -12 1401 0
1583 1 1602 15 27 19 29 65 4 87 -17 16 -143 17 -1614 17 -1558 0 -1595 0
-1612 -19z"/>
<path d="M3247 893 c1789 -2 4717 -2 6505 0 1789 1 326 2 -3252 2 -3578 0
-5041 -1 -3253 -2z"/>
<path d="M1008 762 c-15 -3 -18 -15 -18 -77 0 -69 2 -74 23 -77 32 -5 80 9 95
29 18 25 15 87 -5 105 -19 16 -66 26 -95 20z"/>
<path d="M990 410 l0 -80 45 0 c59 0 95 32 95 84 0 51 -31 76 -92 76 l-48 0 0
-80z"/>
</g>
</svg>
